<?xml version="1.0" encoding="utf-8"?>
<!-- Generator: Adobe Illustrator 22.0.0, SVG Export Plug-In . SVG Version: 6.00 Build 0)  -->
<svg version="1.1" id="Layer_1" xmlns="http://www.w3.org/2000/svg" xmlns:xlink="http://www.w3.org/1999/xlink" x="0px" y="0px"
	 viewBox="0 0 684.9 88.3" style="enable-background:new 0 0 684.9 88.3;" xml:space="preserve">
<style type="text/css">
	.st0{fill:#503d3f;}
</style>
<g>
	<path class="st0" d="M54,43.6v11.1h12.4v9.8c-1.4,1.5-9.2,9-20.7,9c-15.8,0-27.2-12.2-27.2-29S30,16,46.3,16
		c12.5,0,20.8,7.2,20.9,7.2l0.8,0.7l6.4-9.5l-0.5-0.5c-0.4-0.4-10-9.4-28.4-9.4C22.8,4.5,5.7,21.8,5.7,44.7
		c0,23.1,16.5,40.5,38.4,40.5c11.9,0,19.6-5.5,22.7-8.2c0,0.4,0,0.8,0,1.2v5.7H78V43.7H54V43.6z"/>
	<polygon class="st0" points="110.9,72.6 110.9,5.6 98.4,5.6 98.4,83.7 145,83.7 145,72.6 	"/>
	<path class="st0" d="M295.2,42.3c5.4-3.4,8.5-9.4,8.5-16.4c0-12.4-9-20.4-23.1-20.4H253v78.1h28.2c15.5,0,25.4-8.9,25.4-22.6
		C306.8,52.4,302.3,45.2,295.2,42.3z M281.9,72.6h-16.3V48.4h16.2c7.5,0,12.3,4.8,12.3,12.2C294.1,68,289.4,72.6,281.9,72.6z
		 M280.7,37.7h-15.1v-21h14.9c6.6,0,10.6,3.9,10.6,10.3C291,33.4,286.9,37.7,280.7,37.7z"/>
	<path class="st0" d="M375.3,5.6v50c0,11.1-6.9,17.8-18.6,17.8c-11.5,0-18.3-6.6-18.3-17.6V5.6h-12.5v50.2
		c0,17.5,12.4,29.2,30.9,29.2s30.9-11.7,30.9-29.2V5.6L375.3,5.6L375.3,5.6z"/>
	<path class="st0" d="M425.1,72.6c-1.6,0-2.8,0-3.8,0.1c1-1.2,2.6-3.1,4.3-5.6l36.9-53.3V5.6h-55.4v11.1h35.5c1.5,0,2.8-0.1,3.7-0.1
		c-1,1.2-2.6,3.2-4.3,5.6l-36.9,53.2v8.3h57.8V72.6H425.1z"/>
	<path class="st0" d="M496.1,72.6c-1.6,0-2.8,0-3.8,0.1c1-1.2,2.6-3.1,4.3-5.6l36.9-53.3V5.6h-55.4v11.1h35.5c1.5,0,2.8-0.1,3.7-0.1
		c-1,1.2-2.6,3.2-4.3,5.6l-36.9,53.2v8.3h57.8V72.6H496.1z"/>
	<polygon class="st0" points="565.6,72.6 565.6,49.9 592.9,49.9 592.9,38.8 565.6,38.8 565.6,16.7 599.2,16.7 599.2,5.6 553.1,5.6 
		553.1,83.7 601,83.7 601,72.6 	"/>
	<path class="st0" d="M661.1,52.8c-0.7-1.3-1.3-2.2-1.7-2.7c8.1-3.1,13.3-11.3,13.3-21.1c0-10.1-5.2-18.4-13.4-21.5
		c-3-1.1-6.5-1.8-14.6-1.8h-24.2v78.1H633V53.4h14.9L664,83.8h14.2L661.1,52.8z M632.9,16.7h11.4c5.8,0,8.2,0.6,10,1.6
		c3.7,2,5.6,5.8,5.6,11c0,8-4.8,12.9-12.6,12.9h-14.4V16.7z"/>
	<path class="st0" d="M221.2,32.9l0.7,0.5h0.7v-1.3l2.1-0.2l2,1.5h3.2l0.2-0.2c-0.3-1.1-0.7-2.2-1.1-3.2h-2.1l-1.1-1.2l-0.2-1.9
		l-1.1,0.6l-0.6,2.3l-1.6-1.7l-0.1-1.6l-1.5-1.3l-0.6-0.6h-1.7l0.6,1.6l2.1,1.2l0.4,0.4l-0.5,0.3v1.2l-1,0.4l-0.9-0.2l-0.5-0.8
		l1.4,0.1l0.4-0.5l-3.2-2.1l-0.2-0.9l-1.3,1.2l-1.3-0.3l-2,2.6l-0.4,1l-1.3,0.1h-1.9l-1.1-0.5l-0.3-2.2l0.4-1.1l1.9-0.4l2.1,0.4
		l0.3-1.2l-0.9-0.2l0.3-1.8l2.1-0.3l1.5-2.1l1.5-0.3l1.4,0.2h0.5l-0.3-1.9l-1.7,0.7l-0.6-1.4l-1-0.1l-0.2-1l0.8-0.9l1.9-0.7l0.5-0.9
		c-7.1-6.3-16.5-10.1-26.7-10.1c-8.9,0-17.1,2.9-23.8,7.7h2l0.9,0.5l1.7,0.4l0.1,0.7l2.7,0.1l-0.4-0.9l-2.4-0.1l0.6-0.5l-0.2-0.6
		h-2.2l2.4-1.8h2.3l1.1,1.5l1.8,0.1l1.1-1l0.8,0.4l-1.5,1.4c0,0-2,0-1.9,0s0.2,1.4,0.2,1.4l2.5-0.1l0.3-0.7l1.7-0.1l0.2-1l-1-0.2
		l0.3-0.9l0.8-0.2l2.7,0.1l-1.5,1.3l0.2,1l1.5,0.2l-0.1-1.9l1.5-0.8l2.6-0.3l3.8,1.7v1.4l1.2,0.3l-0.6,1.1H191l-0.5,1.3l-3.9-0.9
		l3.1-1.6l-1.2-1l-2.7,0.3l-0.2,0.2l0,0v0.1l-0.8,0.8l-1.3,0.1l0.1,0.6l0.4,0.2v0.2l-1,0.1l-0.1,0.6l-1,0.1l-0.2-1.2l-1.7,0.9
		l-3.6,2.1l0.4,1.5l1,0.7l2,0.3V22l0.9-0.2l0.9-1.8l2.1-0.7v-2.7l1.2-0.9l2.9,0.7l-0.2,1.8h0.8l2.1-1l0.1,2.4l1.5,0.9l-0.1,1.4
		l-1.5,0.5l0.1,0.5l1.8,0.8v1h-0.5l0,0l-2.2-0.7l-0.1-0.7l0,0l0.7-0.5v-0.7l-0.7-0.2l-0.2,0.6l-1.2,0.2h-0.1v0.1l-0.4,0.1l-0.4-0.7
		l-0.4-0.2H186l-0.4,0.3V23l0.8,0.3l0.7,0.1l-0.2,0.1l-0.7,0.8l-0.3-0.4l-0.7-0.2l-1.8,1.7l0.2,0.2l-2.6,1.5l-2.5,2.6l-0.2,1.2
		l-2.5,1.6l-1.2,1.2l0.1,2.5l-1.7-0.8v-1.5h-4.8l-2.5,1.2l-1.1,2l-0.4,1.6l0.7,1.5l1.9,0.2l3.1-2.1l0.3,1l-0.9,1.8l2.4,0.4l0.2,3.6
		l3.2,0.5l2.1-2.4l2.5,0.5l0.9,1.2l2.4-0.1l0.1-0.7l1.3,0.6l1.5,2.3h2.6l0.9,1.6l0.1,2l2.8,1.1h3.6l1,1.7l1.6,0.5l-0.3,1.4l-1.7,2.2
		l-0.5,4.9l-1.6,1.2l-2.3-0.1l-0.8,1.3l0.6,2.5l-2.5,3.2l-0.8,1.5l-2.4,1.2l-1.6,0.2l-0.1,0.7l1.1,0.3l-0.1,0.7l-1,1l0.6,0.8h1.2
		l-0.1,0.9l-0.3,0.9l-0.1,0.7l1.8,1.5l-0.2,0.8H185l-2.4-2.1l-1.9-3.3l0.3-3.2l-1.4-1.9l0.6-3.2l-0.8-0.2v-6.9c0,0-2.4-1.8-2.5-1.8
		s-1.2-0.3-1.2-0.3l-0.2-1.3l-3.1-3.8l0.3-1.4l0.1-2.3l2.1-1.5l-0.3-2.5l-3.1-0.2l-2.4-2.8l-1.7-0.5l-1.1-0.2l0.1-1l-1.4-0.2v0.6
		l-3.5-0.9l-1.4-2.2l0.6-1.1l-2.2-3.3l-0.4-2.4h-0.9l0.3,2.3l1.5,2.4l-0.2,0.9l-1.3-0.2l-1.6-2.8v-3.2l-1.7-0.8v-2.3
		c-2.1,4.9-3.2,10.2-3.2,15.8c0,22.3,18.1,40.4,40.4,40.4c12.6,0,23.9-5.8,31.4-15h-1.3v-2.7l-1.5-2.1v-2.4l-1.2-1.2l-0.1-1.3
		l1.5-2.9l-2.8-5l0.3-3.4l-2.6-0.3l-0.9-0.9h-1.7l-0.9,0.8h-3l-0.1,0.3h-1.7l-3.9-4.4v-3.4l0.6-0.2l0.2-1.3h-0.9l-0.4-1.4l4.5-3.2
		V32l2.2-1.2l0.9,0.1h1.8l1.4-0.8l4.5-0.4V32L221.2,32.9z M209.8,18.5l0.4-0.6l1.3-0.3l0.3,1.6l0.7,1.1l0.5,0.5l0.9,0.3l-0.8,1
		l-1.6,0.2h-1.2l0.1-1.4l1-0.2l-0.1-0.7l-0.9-0.6l-0.6-0.4L209.8,18.5L209.8,18.5z M207.7,21l0.8-1.3l1.1-0.3l0.8,0.3l-0.1,0.9
		l-1.7,1.2h-0.9L207.7,21L207.7,21z M185.7,26l-0.8,0.1v-0.6l0.4-0.5l0.5,0.4L185.7,26z M188.6,24.9H188l-0.1,0.6l-0.4,0.3l-0.7,0.1
		c0-0.2,0-0.3,0-0.3h-0.3V25h1.2l0.2-0.6h0.5l0.5,0.1L188.6,24.9z"/>
</g>
</svg>
